<svg style="display:none">
	<symbol id="Logo" viewBox="0 0 129.429 28" xmlns="http://www.w3.org/2000/svg"><path id="Vector" d="M0,19.746H6.261l2.5-12.018c.742-3.561,6.624-4.257,5.771-.153L12.007,19.746h6.261L20.383,9.552c.567-2.731,1.605-4.727,4.035-4.727,2.834,0,2.092,2.909,1.717,4.727L24.013,19.746h6.261L33.163,5.809c1.395-6.732-9.105-7.662-12.43-2.5C19.774-1.585,12.195-.515,9.5,3.049H9.43L9.943.574H3.978Z" transform="translate(52.935 7.614)" fill="#f44237"/><path id="Vector-2" data-name="Vector" d="M6.261,11.7c0-2.587,1.325-7.093,4.713-7.093,2.357,0,3.169,1.7,3.169,4.1,0,2.954-1.252,6.943-4.825,6.943C7.108,15.659,6.261,13.886,6.261,11.7ZM0,11.928c0,5.653,3.866,8.348,9.172,8.348,6.924,0,11.233-4.985,11.233-11.82C20.4,2.954,16.612,0,11.382,0,4.456,0,0,5.132,0,11.928Z" transform="translate(109.024 7.639)" fill="#f44237"/><path id="Vector-3" data-name="Vector" d="M15.984,16.058c0,2.769-1.475,7.055-4.971,7.055-2.064,0-3.131-1.479-3.131-3.472,0-3.028,1.217-7.2,4.971-7.2C14.953,12.436,15.984,13.88,15.984,16.058ZM0,27.36H5.968l.561-2.7H6.6c.994,2.363,2.682,3.251,5.592,3.251,6.519,0,10.054-6.167,10.054-12.225,0-4.286-2.1-8.051-6.739-8.051a6.89,6.89,0,0,0-5.6,2.549H9.838L11.94,0H5.678Z" transform="translate(85.508 0)" fill="#f44237"/><path id="Vector-4" data-name="Vector" d="M6.262,14.4c0-3.7,5.672-2.143,7.255-3.472h.038C13.336,12.666,12.6,16.4,8.8,16.4,7.552,16.4,6.262,15.917,6.262,14.4Zm2.172-7.94c.223-3.305,6.207-3.053,6.115-.553-.1,2.571-2.946,2.363-5.083,2.475C4.568,8.754.09,9.75,0,14.883c-.124,6.959,10.14,6.5,12.007,2.992h.073L11.7,19.721h5.924l2.9-13.992C21.349,1.76,17.164,0,11.858,0,7.18,0,3.5,1.479,2.5,6.464H8.434Z" transform="translate(33.057 7.639)" fill="#f44237"/><path id="Vector-5" data-name="Vector" d="M0,19.745H6.261l2.5-12.018c.742-3.561,6.624-4.257,5.771-.153L12.007,19.745h6.264L20.386,9.55c.567-2.731,1.605-4.727,4.035-4.727,2.834,0,2.092,2.909,1.717,4.727L24.016,19.745h6.261L33.166,5.807c1.395-6.732-9.105-7.662-12.43-2.5C19.777-1.583,12.2-.516,9.5,3.048h-.07L9.946.573H3.978Z" transform="translate(0 7.616)" fill="#f44237"/><path id="Vector-6" data-name="Vector" d="M1.806.728H2.914c.7,0,1.115.5,1.115,1.4,0,.514-.347,2.239-1.876,2.239H1.045ZM0,5.091H1.783a2.727,2.727,0,0,0,2.331-.856,3.258,3.258,0,0,0,.8-2.1C4.917.719,4.213,0,2.927,0H1.064Z" transform="translate(4.641 0)"/><path id="Vector-7" data-name="Vector" d="M0,5.091H3.72l.156-.77H1.032L1.338,2.83H3.962l.15-.725H1.494L1.771.77H4.6L4.752,0h-3.7Z" transform="translate(12.214 0)"/><path id="Vector-8" data-name="Vector" d="M0,5.091H3.449l.156-.77H1.045L1.943,0H1.054Z" transform="translate(19.156 0)"/><path id="Vector-9" data-name="Vector" d="M0,5.091H.889L1.949,0H1.061Z" transform="translate(25.678 0)"/><path id="Vector-10" data-name="Vector" d="M.662,5.091h1.01L4.459,0H3.513L1.395,4.021H1.379L.9,0H0Z" transform="translate(30.545 0)"/><path id="Vector-11" data-name="Vector" d="M0,4.1H2.995l.126-.62H.829l.246-1.2H3.19L3.31,1.7H1.2L1.424.62H3.7L3.826,0H.847Z" transform="translate(37.136 0)"/><path id="Vector-12" data-name="Vector" d="M1.806.728H3.051c.468,0,.911.105.911.664,0,.591-.427.926-1.182.926h-1.3ZM0,5.091H.9L1.338,3H2.395c.478,0,.952,0,.952.591,0,.37-.086.735-.086,1.111a1.14,1.14,0,0,0,.057.393h.93a.78.78,0,0,1-.092-.422c-.006-.348.08-.706.08-1.054a.85.85,0,0,0-.541-.92V2.68A1.282,1.282,0,0,0,4.847,1.3C4.847.057,3.682,0,3.248,0h-2.2Z" transform="translate(43.785 0)"/><path id="Vector-13" data-name="Vector" d="M.838,5.091h.889l.4-1.945L4.634,0H3.583L1.806,2.309.93,0H0L1.252,3.072Z" transform="translate(51.593 0)"/></symbol>
	<symbol id="ChevronLeft" xmlns="http://www.w3.org/2000/svg" fill="none" viewBox="0 0 24 24" stroke="currentColor"><path stroke-linecap="round" stroke-linejoin="round" d="M15.75 19.5L8.25 12l7.5-7.5" /></symbol>
	<symbol id="ChevronRight" xmlns="http://www.w3.org/2000/svg" fill="none" viewBox="0 0 24 24" stroke="currentColor"><path stroke-linecap="round" stroke-linejoin="round" d="M8.25 4.5l7.5 7.5-7.5 7.5" /></symbol>
	<symbol id="ChevronUp" xmlns="http://www.w3.org/2000/svg" fill="none" viewBox="0 0 24 24" stroke="currentColor"><path stroke-linecap="round" stroke-linejoin="round" d="M4.5 15.75l7.5-7.5 7.5 7.5" /></symbol>	
	<symbol id="ChevronDown" xmlns="http://www.w3.org/2000/svg" fill="none" viewBox="0 0 24 24" stroke="currentColor"><path stroke-linecap="round" stroke-linejoin="round" d="M19.5 8.25l-7.5 7.5-7.5-7.5" /></symbol>
	<symbol id="QuestionMarkCircle" xmlns="http://www.w3.org/2000/svg" fill="none" viewBox="0 0 24 24" stroke="currentColor"><path stroke-linecap="round" stroke-linejoin="round" d="M9.879 7.519c1.171-1.025 3.071-1.025 4.242 0 1.172 1.025 1.172 2.687 0 3.712-.203.179-.43.326-.67.442-.745.361-1.45.999-1.45 1.827v.75M21 12a9 9 0 11-18 0 9 9 0 0118 0zm-9 5.25h.008v.008H12v-.008z" /></symbol>
	<symbol id="User" viewBox="0 0 20 20" fill="none" xmlns="http://www.w3.org/2000/svg"><path fill-rule="evenodd" clip-rule="evenodd" d="M10.0003 3.33366C8.61961 3.33366 7.50033 4.45295 7.50033 5.83366C7.50033 7.21437 8.61961 8.33366 10.0003 8.33366C11.381 8.33366 12.5003 7.21437 12.5003 5.83366C12.5003 4.45295 11.381 3.33366 10.0003 3.33366ZM5.83366 5.83366C5.83366 3.53247 7.69914 1.66699 10.0003 1.66699C12.3015 1.66699 14.167 3.53247 14.167 5.83366C14.167 8.13484 12.3015 10.0003 10.0003 10.0003C7.69914 10.0003 5.83366 8.13484 5.83366 5.83366ZM8.33366 13.3337C7.67062 13.3337 7.03473 13.597 6.56589 14.0659C6.09705 14.5347 5.83366 15.1706 5.83366 15.8337V17.5003C5.83366 17.9606 5.46056 18.3337 5.00033 18.3337C4.54009 18.3337 4.16699 17.9606 4.16699 17.5003V15.8337C4.16699 14.7286 4.60598 13.6688 5.38738 12.8874C6.16878 12.106 7.22859 11.667 8.33366 11.667H11.667C12.7721 11.667 13.8319 12.106 14.6133 12.8874C15.3947 13.6688 15.8337 14.7286 15.8337 15.8337V17.5003C15.8337 17.9606 15.4606 18.3337 15.0003 18.3337C14.5401 18.3337 14.167 17.9606 14.167 17.5003V15.8337C14.167 15.1706 13.9036 14.5347 13.4348 14.0659C12.9659 13.597 12.33 13.3337 11.667 13.3337H8.33366Z" fill="currentColor"/></symbol>
	<symbol id="ShoppingCart" viewBox="0 0 20 20" fill="none" xmlns="http://www.w3.org/2000/svg"><path d="M14.9997 5.00033H13.333C13.333 3.15866 11.8413 1.66699 9.99968 1.66699C8.15801 1.66699 6.66634 3.15866 6.66634 5.00033H4.99967C4.08301 5.00033 3.33301 5.75033 3.33301 6.66699V16.667C3.33301 17.5837 4.08301 18.3337 4.99967 18.3337H14.9997C15.9163 18.3337 16.6663 17.5837 16.6663 16.667V6.66699C16.6663 5.75033 15.9163 5.00033 14.9997 5.00033ZM9.99968 3.33366C10.9163 3.33366 11.6663 4.08366 11.6663 5.00033H8.33301C8.33301 4.08366 9.08301 3.33366 9.99968 3.33366ZM14.9997 16.667H4.99967V6.66699H6.66634V8.33366C6.66634 8.79199 7.04134 9.16699 7.49967 9.16699C7.95801 9.16699 8.33301 8.79199 8.33301 8.33366V6.66699H11.6663V8.33366C11.6663 8.79199 12.0413 9.16699 12.4997 9.16699C12.958 9.16699 13.333 8.79199 13.333 8.33366V6.66699H14.9997V16.667Z" fill="currentColor"/></symbol>
	<symbol id="Bars3" xmlns="http://www.w3.org/2000/svg" viewBox="0 0 20 20" stroke="currentColor" fill="none"><path fill-rule="evenodd" clip-rule="evenodd" d="M2.5 5.00033C2.5 4.54009 2.8731 4.16699 3.33333 4.16699H16.6667C17.1269 4.16699 17.5 4.54009 17.5 5.00033C17.5 5.46056 17.1269 5.83366 16.6667 5.83366H3.33333C2.8731 5.83366 2.5 5.46056 2.5 5.00033ZM2.5 10.0003C2.5 9.54009 2.8731 9.16699 3.33333 9.16699H16.6667C17.1269 9.16699 17.5 9.54009 17.5 10.0003C17.5 10.4606 17.1269 10.8337 16.6667 10.8337H3.33333C2.8731 10.8337 2.5 10.4606 2.5 10.0003ZM2.5 15.0003C2.5 14.5401 2.8731 14.167 3.33333 14.167H16.6667C17.1269 14.167 17.5 14.5401 17.5 15.0003C17.5 15.4606 17.1269 15.8337 16.6667 15.8337H3.33333C2.8731 15.8337 2.5 15.4606 2.5 15.0003Z" fill="currentColor"/></symbol>
	<symbol id="Heart" xmlns="http://www.w3.org/2000/svg" viewBox="0 0 24 24" stroke="currentColor" fill="none"><path stroke-linecap="round" stroke-linejoin="round" d="M21 8.25c0-2.485-2.099-4.5-4.688-4.5-1.935 0-3.597 1.126-4.312 2.733-.715-1.607-2.377-2.733-4.313-2.733C5.1 3.75 3 5.765 3 8.25c0 7.22 9 12 9 12s9-4.78 9-12z" /></symbol>
	<symbol id="MagnifyingGlass" viewBox="0 0 20 20" fill="none" xmlns="http://www.w3.org/2000/svg"><path fill-rule="evenodd" clip-rule="evenodd" d="M8.33366 3.33366C5.57223 3.33366 3.33366 5.57223 3.33366 8.33366C3.33366 11.0951 5.57223 13.3337 8.33366 13.3337C11.0951 13.3337 13.3337 11.0951 13.3337 8.33366C13.3337 5.57223 11.0951 3.33366 8.33366 3.33366ZM1.66699 8.33366C1.66699 4.65176 4.65176 1.66699 8.33366 1.66699C12.0156 1.66699 15.0003 4.65176 15.0003 8.33366C15.0003 9.87425 14.4778 11.2928 13.6002 12.4217L18.0896 16.9111C18.415 17.2365 18.415 17.7641 18.0896 18.0896C17.7641 18.415 17.2365 18.415 16.9111 18.0896L12.4217 13.6002C11.2928 14.4778 9.87425 15.0003 8.33366 15.0003C4.65176 15.0003 1.66699 12.0156 1.66699 8.33366Z" fill="currentColor"/></symbol>
	<symbol id="XMark" xmlns="http://www.w3.org/2000/svg" fill="none" viewBox="0 0 24 24" stroke="currentColor"><path stroke-linecap="round" stroke-linejoin="round" d="M6 18L18 6M6 6l12 12" /></symbol>
	<symbol id="Plus" xmlns="http://www.w3.org/2000/svg" fill="none" viewBox="0 0 24 24" stroke="currentColor"><path stroke-linecap="round" stroke-linejoin="round" d="M12 4.5v15m7.5-7.5h-15" /></symbol>
	<symbol id="Minus" xmlns="http://www.w3.org/2000/svg" fill="none" viewBox="0 0 24 24" stroke="currentColor"><path stroke-linecap="round" stroke-linejoin="round" d="M19.5 12h-15" /></symbol>
	<symbol id="MapPin" xmlns="http://www.w3.org/2000/svg" fill="none" viewBox="0 0 24 24" stroke="currentColor"><path stroke-linecap="round" stroke-linejoin="round" d="M15 10.5a3 3 0 11-6 0 3 3 0 016 0z" /><path stroke-linecap="round" stroke-linejoin="round" d="M19.5 10.5c0 7.142-7.5 11.25-7.5 11.25S4.5 17.642 4.5 10.5a7.5 7.5 0 1115 0z" /></symbol>	
	<symbol id="Phone" xmlns="http://www.w3.org/2000/svg" fill="none" viewBox="0 0 24 24" stroke="currentColor"><path stroke-linecap="round" stroke-linejoin="round" d="M2.25 6.75c0 8.284 6.716 15 15 15h2.25a2.25 2.25 0 002.25-2.25v-1.372c0-.516-.351-.966-.852-1.091l-4.423-1.106c-.44-.11-.902.055-1.173.417l-.97 1.293c-.282.376-.769.542-1.21.38a12.035 12.035 0 01-7.143-7.143c-.162-.441.004-.928.38-1.21l1.293-.97c.363-.271.527-.734.417-1.173L6.963 3.102a1.125 1.125 0 00-1.091-.852H4.5A2.25 2.25 0 002.25 4.5v2.25z" /></symbol>
	<symbol id="Elo" xmlns="http://www.w3.org/2000/svg" viewBox="0 0 40 14" stroke="currentColor" fill="none"><path d="M6.57655 3.09309C6.98496 2.95495 7.4234 2.88288 7.87985 2.88288C9.87385 2.88288 11.5375 4.3003 11.9159 6.18018L14.7387 5.6036C14.0901 2.40841 11.2672 0 7.87985 0C7.10508 0 6.36033 0.126126 5.66364 0.36036L6.57655 3.09309Z" fill="currentColor"/><path d="M3.24323 12.2463L5.15314 10.0841C4.30029 9.32733 3.76576 8.22823 3.76576 6.997C3.76576 5.77178 4.30029 4.66667 5.15314 3.91592L3.24323 1.75977C1.79579 3.04505 0.882874 4.91292 0.882874 7.00301C0.882874 9.08709 1.79579 10.961 3.24323 12.2463Z" fill="currentColor"/><path d="M11.9159 7.82617C11.5315 9.70605 9.87387 11.1175 7.87988 11.1175C7.42342 11.1175 6.98498 11.0454 6.57057 10.9073L5.65765 13.64C6.35435 13.8742 7.1051 14.0003 7.87988 14.0003C11.2673 14.0003 14.0901 11.5979 14.7387 8.40275L11.9159 7.82617Z" fill="currentColor"/><path d="M24.1441 9.75962C23.6757 10.2161 23.045 10.4924 22.3484 10.4803C21.8679 10.4743 21.4234 10.3302 21.0511 10.0899L20.1141 11.5794C20.7568 11.9818 21.5075 12.2221 22.3243 12.2341C23.5075 12.2521 24.5886 11.7836 25.3754 11.0209L24.1441 9.75962ZM22.4505 3.68755C20.0961 3.65151 18.1502 5.5374 18.1141 7.89175C18.1021 8.77463 18.3544 9.60346 18.8048 10.2881L26.5405 6.97884C26.1081 5.12298 24.4505 3.72358 22.4505 3.68755ZM19.8859 8.22809C19.8739 8.13199 19.8679 8.02989 19.8679 7.92779C19.8919 6.5404 21.033 5.42929 22.4204 5.45331C23.1772 5.46532 23.8499 5.80767 24.3003 6.34821L19.8859 8.22809ZM28.973 1.76562V10.0119L30.4024 10.6065L29.7237 12.2341L28.3063 11.6455C27.988 11.5074 27.7718 11.2972 27.6096 11.0569C27.4535 10.8167 27.3333 10.4803 27.3333 10.0359V1.76562H28.973Z" fill="currentColor"/><path d="M34.1321 5.57925C34.3844 5.49516 34.6487 5.45312 34.9309 5.45312C36.1502 5.45312 37.1592 6.31798 37.3934 7.46513L39.1171 7.11078C38.7207 5.15882 36.997 3.69336 34.9309 3.69336C34.4565 3.69336 34 3.77144 33.5796 3.90958L34.1321 5.57925ZM32.0961 11.1588L33.2613 9.84351C32.7387 9.38105 32.4144 8.70837 32.4144 7.95762C32.4144 7.20687 32.7448 6.5342 33.2613 6.07774L32.0961 4.76243C31.2132 5.54321 30.6547 6.69036 30.6547 7.96363C30.6547 9.2369 31.2132 10.378 32.0961 11.1588ZM37.3934 8.46813C37.1592 9.61528 36.1442 10.4801 34.9309 10.4801C34.6547 10.4801 34.3844 10.4321 34.1321 10.348L33.5736 12.0177C34 12.1618 34.4565 12.2399 34.9309 12.2399C36.997 12.2399 38.7207 10.7744 39.1171 8.82249L37.3934 8.46813Z" fill="currentColor"/></symbol>
	<symbol id="Mastercard" xmlns="http://www.w3.org/2000/svg" viewBox="0 0 26 20" fill="none" stroke="currentColor"><g clip-path="url(#clip0_81_156)"><path d="M4.77191 19.9552V18.6263C4.77191 18.1167 4.46174 17.7846 3.95265 17.7846C3.68527 17.7846 3.39918 17.8734 3.19971 18.159C3.04463 17.9151 2.82538 17.7846 2.49116 17.7846C2.36689 17.7793 2.24323 17.8048 2.13124 17.8589C2.01926 17.913 1.92244 17.9941 1.84944 18.0948V17.8274H1.42859V19.9536H1.84944V18.737C1.84944 18.3627 2.07083 18.1836 2.381 18.1836C2.69116 18.1836 2.86816 18.383 2.86816 18.737V19.9552H3.28902V18.737C3.28902 18.3627 3.51041 18.1836 3.82057 18.1836C4.13073 18.1836 4.30773 18.383 4.30773 18.737V19.9552H4.77191ZM11.6821 17.8509H10.9067V17.2092H10.4869V17.8509H10.0441V18.2253H10.4869V19.2242C10.4869 19.7114 10.6639 19.9996 11.1954 19.9996C11.3968 19.9954 11.5941 19.9422 11.7703 19.8445L11.6371 19.4702C11.5177 19.5449 11.3791 19.5833 11.2382 19.5809C11.0168 19.5809 10.9061 19.4477 10.9061 19.2263V18.2082H11.6815V17.8536L11.6821 17.8509ZM15.6243 17.7846C15.5097 17.7821 15.3964 17.8093 15.2954 17.8637C15.1945 17.918 15.1093 17.9977 15.0484 18.0948V17.8274H14.6275V19.9536H15.0484V18.7595C15.0484 18.405 15.2254 18.1836 15.5136 18.1836C15.6109 18.1875 15.7074 18.2024 15.8013 18.2279L15.9345 17.829C15.8329 17.8034 15.729 17.7885 15.6243 17.7846ZM9.66656 18.006C9.44517 17.8509 9.13501 17.7846 8.80292 17.7846C8.27137 17.7846 7.93928 18.0285 7.93928 18.4493C7.93928 18.8039 8.18314 19.0028 8.64784 19.0697L8.86923 19.0916C9.11308 19.136 9.26816 19.2247 9.26816 19.3354C9.26816 19.4905 9.09116 19.6028 8.75854 19.6028C8.50456 19.608 8.2558 19.5303 8.04998 19.3814L7.82859 19.7135C8.13875 19.9349 8.51522 19.9809 8.73768 19.9809C9.358 19.9809 9.69009 19.6932 9.69009 19.2943C9.69009 18.9199 9.42271 18.7408 8.95907 18.6739L8.73768 18.652C8.53822 18.6301 8.36335 18.5632 8.36335 18.4306C8.36335 18.2755 8.54036 18.1632 8.78421 18.1632C9.05159 18.1632 9.31576 18.2739 9.44891 18.3402L9.66656 18.006ZM16.0896 18.8921C16.0896 19.5338 16.5104 19.9996 17.197 19.9996C17.5072 19.9996 17.7286 19.9333 17.95 19.7558L17.7286 19.4237C17.5718 19.5506 17.3768 19.6209 17.1751 19.6231C16.8008 19.6231 16.5104 19.3354 16.5104 18.9146C16.5104 18.4937 16.797 18.2082 17.1751 18.2082C17.3768 18.2104 17.5718 18.2807 17.7286 18.4076L17.95 18.0755C17.7286 17.8985 17.5072 17.8317 17.197 17.8317C16.5323 17.7873 16.0896 18.2525 16.0896 18.8948V18.8921ZM13.1216 17.7846C12.5013 17.7846 12.0805 18.2274 12.0805 18.8921C12.0805 19.5568 12.5232 19.9996 13.1655 19.9996C13.4779 20.0062 13.7831 19.9046 14.0291 19.7119L13.8077 19.4017C13.6298 19.5396 13.4125 19.6172 13.1874 19.6231C12.8997 19.6231 12.5896 19.4461 12.5457 19.0697H14.1184V18.8927C14.1184 18.2279 13.7195 17.7852 13.1216 17.7852V17.7846ZM13.0997 18.1836C13.4099 18.1836 13.6313 18.383 13.6532 18.7151H12.5019C12.5682 18.405 12.7692 18.1836 13.0997 18.1836ZM7.36335 18.8921V17.829H6.94249V18.0964C6.78741 17.8969 6.56816 17.7862 6.25586 17.7862C5.658 17.7862 5.21469 18.2515 5.21469 18.8937C5.21469 19.536 5.65747 20.0012 6.25586 20.0012C6.56602 20.0012 6.78741 19.8905 6.94249 19.691V19.9584H7.36335V18.8921ZM5.658 18.8921C5.658 18.4932 5.90185 18.1836 6.32271 18.1836C6.72164 18.1836 6.96442 18.4937 6.96442 18.8921C6.96442 19.313 6.69704 19.6007 6.32271 19.6007C5.90185 19.6226 5.658 19.2905 5.658 18.8921ZM22.0259 17.7846C21.9113 17.7821 21.798 17.8093 21.697 17.8637C21.5961 17.918 21.5109 17.9977 21.45 18.0948V17.8274H21.0291V19.9536H21.4495V18.7595C21.4495 18.405 21.6265 18.1836 21.9147 18.1836C22.012 18.1875 22.1085 18.2024 22.2024 18.2279L22.3355 17.829C22.234 17.8034 22.13 17.7885 22.0254 17.7846H22.0259ZM20.3869 18.8921V17.829H19.966V18.0964C19.8109 17.8969 19.5917 17.7862 19.2794 17.7862C18.6815 17.7862 18.2382 18.2515 18.2382 18.8937C18.2382 19.536 18.681 20.0012 19.2794 20.0012C19.5896 20.0012 19.8109 19.8905 19.966 19.691V19.9584H20.3869V18.8921ZM18.6815 18.8921C18.6815 18.4932 18.9254 18.1836 19.3462 18.1836C19.7452 18.1836 19.988 18.4937 19.988 18.8921C19.988 19.313 19.7206 19.6007 19.3462 19.6007C18.9254 19.6226 18.6815 19.2905 18.6815 18.8921ZM24.6618 18.8921V16.9873H24.2409V18.0948C24.0858 17.8953 23.8666 17.7846 23.5543 17.7846C22.9564 17.7846 22.5131 18.2499 22.5131 18.8921C22.5131 19.5344 22.9559 19.9996 23.5543 19.9996C23.8644 19.9996 24.0858 19.8889 24.2409 19.6894V19.9568H24.6618V18.8921ZM22.9564 18.8921C22.9564 18.4932 23.2003 18.1836 23.6211 18.1836C24.02 18.1836 24.2628 18.4937 24.2628 18.8921C24.2628 19.313 23.9954 19.6007 23.6211 19.6007C23.1997 19.6231 22.9559 19.291 22.9559 18.8921H22.9564Z" fill="currentColor"/><path d="M9.95478 7.97327C9.95505 6.76731 10.2281 5.57704 10.7536 4.49159C11.279 3.40613 12.0433 2.45361 12.989 1.70535C11.8128 0.780601 10.4002 0.205442 8.9126 0.045623C7.42499 -0.114196 5.92242 0.147775 4.57667 0.801588C3.23091 1.4554 2.09627 2.47468 1.30244 3.74289C0.508619 5.01111 0.0876465 6.47709 0.0876465 7.97327C0.0876465 9.46944 0.508619 10.9354 1.30244 12.2036C2.09627 13.4719 3.23091 14.4911 4.57667 15.1449C5.92242 15.7988 7.42499 16.0607 8.9126 15.9009C10.4002 15.7411 11.8128 15.1659 12.989 14.2412C12.0433 13.4929 11.279 12.5404 10.7536 11.4549C10.2281 10.3695 9.95505 9.17922 9.95478 7.97327Z" fill="currentColor"/><path d="M25.9019 7.97297C25.9029 9.46805 25.4832 10.9333 24.6907 12.201C23.8982 13.4688 22.7648 14.4879 21.4203 15.1418C20.0758 15.7957 18.5744 16.0579 17.0879 15.8986C15.6013 15.7393 14.1896 15.1648 13.0142 14.2409C13.9601 13.4928 14.7245 12.5403 15.25 11.4548C15.7755 10.3693 16.0485 9.17898 16.0485 7.97297C16.0485 6.76696 15.7755 5.5766 15.25 4.4911C14.7245 3.4056 13.9601 2.45312 13.0142 1.70506C14.1896 0.781104 15.6013 0.20662 17.0879 0.0473072C18.5744 -0.112005 20.0758 0.150287 21.4203 0.804186C22.7648 1.45808 23.8982 2.47719 24.6907 3.74493C25.4832 5.01268 25.9029 6.47789 25.9019 7.97297Z" fill="currentColor" fill-opacity="0.4"/><path fill-rule="evenodd" clip-rule="evenodd" d="M13.0141 1.70508H12.989C12.0432 2.45333 11.279 3.40585 10.7536 4.49131C10.2281 5.57677 9.95504 6.76704 9.95477 7.97299C9.95504 9.17894 10.2281 10.3692 10.7536 11.4547C11.279 12.5401 12.0433 13.4926 12.989 14.2409H13.0141C13.0141 14.2409 13.0141 14.2409 13.0141 14.2409C13.9601 13.4928 14.7245 12.5404 15.25 11.4549C15.7755 10.3694 16.0484 9.17899 16.0484 7.97299C16.0484 6.76698 15.7755 5.57661 15.25 4.49111C14.7245 3.40561 13.9601 2.45314 13.0141 1.70508Z" fill="currentColor" fill-opacity="0.6"/></g><defs><clipPath id="clip0_81_156"><rect width="25.8027" height="20" fill="white" transform="translate(0.0986328)"/></clipPath></defs></symbol>
	<symbol id="Visa" xmlns="http://www.w3.org/2000/svg" viewBox="0 0 40 12" fill="none" stroke="currentColor"><path d="M14.2514 11.8628L16.2325 0.237305H19.4012L17.4187 11.8628H14.2514Z" fill="currentColor"/><path d="M28.8667 0.488266C28.2389 0.252744 27.2552 0 26.0267 0C22.8956 0 20.6902 1.57674 20.6714 3.83653C20.6537 5.50698 22.2459 6.43886 23.4479 6.99494C24.6813 7.56486 25.0959 7.92824 25.09 8.437C25.0821 9.21631 24.105 9.57221 23.1942 9.57221C21.926 9.57221 21.2522 9.39601 20.2115 8.96208L19.8031 8.77728L19.3585 11.3797C20.0986 11.7043 21.4671 11.9854 22.8882 12C26.2191 12 28.3815 10.4413 28.4061 8.02807C28.4179 6.70556 27.5737 5.69921 25.7455 4.86948C24.638 4.33169 23.9597 3.97282 23.9669 3.42826C23.9669 2.94504 24.541 2.42833 25.7816 2.42833C26.8177 2.41223 27.5684 2.6382 28.1533 2.87372L28.4372 3.00787L28.8667 0.488266Z" fill="currentColor"/><path d="M37.0208 0.237305H34.5723C33.8138 0.237305 33.2461 0.444322 32.913 1.20137L28.2071 11.8552H31.5345C31.5345 11.8552 32.0785 10.4228 32.2015 10.1082C32.5651 10.1082 35.7976 10.1132 36.2597 10.1132C36.3545 10.5202 36.6452 11.8552 36.6452 11.8552H39.5855L37.0208 0.237305ZM33.136 7.74409C33.3981 7.07428 34.3985 4.49428 34.3985 4.49428C34.3798 4.52522 34.6587 3.82121 34.8186 3.38473L35.0328 4.38703C35.0328 4.38703 35.6395 7.16205 35.7663 7.74391H33.136V7.74409Z" fill="currentColor"/><path d="M0.45503 0.237305L0.414551 0.479138C1.66716 0.782359 2.78593 1.22123 3.76542 1.76717L6.57706 11.8441L9.92966 11.8404L14.9183 0.237305H11.5615L8.45929 8.16502L8.12885 6.55384C8.11337 6.50406 8.09654 6.4542 8.07932 6.40422L7.00087 1.21879C6.80912 0.482646 6.25282 0.262959 5.56461 0.237305H0.45503Z" fill="currentColor"/></symbol>		
	<symbol id="Pix" viewBox="0 0 512 512" xmlns="http://www.w3.org/2000/svg" fill="none" stroke="currentColor"> <defs/> <g fill="currentColor" fill-rule="evenodd"> <path d="M393.072 391.897c-20.082 0-38.969-7.81-53.176-22.02l-77.069-77.067c-5.375-5.375-14.773-5.395-20.17 0l-76.784 76.786c-14.209 14.207-33.095 22.019-53.179 22.019h-9.247l97.521 97.52c30.375 30.375 79.614 30.375 109.988 0l97.239-97.238h-15.123zm-105.049 74.327c-8.55 8.53-19.93 13.25-32.05 13.25h-.02c-12.12 0-23.522-4.721-32.05-13.25l-56.855-56.855c7.875-4.613 15.165-10.248 21.758-16.84l63.948-63.948 64.23 64.23c7.637 7.66 16.188 14.013 25.478 18.952l-54.439 54.46zM310.958 22.78c-30.374-30.374-79.613-30.374-109.988 0l-97.52 97.52h9.247c20.082 0 38.97 7.834 53.178 22.02l76.784 76.785c5.57 5.592 14.622 5.57 20.17 0l77.069-77.068c14.207-14.187 33.094-22.02 53.176-22.02h15.123l-97.239-97.237zm6.028 96.346l-64.23 64.23-63.97-63.97c-6.593-6.592-13.86-12.206-21.736-16.818l56.853-56.877c17.69-17.645 46.476-17.668 64.121 0l54.44 54.461c-9.292 4.961-17.842 11.315-25.479 18.974h.001z"/> <path d="M489.149 200.97l-58.379-58.377h-37.706c-13.838 0-27.394 5.635-37.185 15.426l-77.068 77.069c-7.202 7.18-16.623 10.77-26.067 10.77-9.443 0-18.885-3.59-26.066-10.77l-76.785-76.785c-9.792-9.814-23.346-15.427-37.207-15.427h-31.81L22.78 200.97c-30.374 30.375-30.374 79.614 0 109.988l58.095 58.074 31.81.021c13.86 0 27.416-5.635 37.208-15.426l76.784-76.764c13.925-13.947 38.208-13.924 52.133-.02l77.068 77.066c9.791 9.792 23.346 15.405 37.185 15.405h37.706l58.379-58.356c30.374-30.374 30.374-79.613 0-109.988zm-362.19 129.724c-3.763 3.786-8.942 5.917-14.273 5.917H94.302l-48.59-48.564c-17.689-17.69-17.689-46.476 0-64.143L94.3 175.296h18.385c5.331 0 10.51 2.154 14.295 5.918l74.74 74.74-74.761 74.74zm339.257-42.647l-48.848 48.87h-24.305c-5.309 0-10.508-2.155-14.251-5.92l-75.023-75.043 75.023-75.023c3.743-3.764 8.942-5.918 14.252-5.918h24.304l48.847 48.891c8.573 8.551 13.273 19.93 13.273 32.05 0 12.141-4.7 23.52-13.273 32.093z"/> </g> </symbol>
	<symbol id="Facebook" xmlns="http://www.w3.org/2000/svg" viewBox="0 0 24 24" stroke="currentColor" fill="none" stroke-linecap="round" stroke-linejoin="round"><path stroke="none" d="M0 0h24v24H0z" fill="none" /><path d="M7 10v4h3v7h4v-7h3l1 -4h-4v-2a1 1 0 0 1 1 -1h3v-4h-3a5 5 0 0 0 -5 5v2h-3" /></symbol>
	<symbol id="Instagram" xmlns="http://www.w3.org/2000/svg" viewBox="0 0 24 24" stroke="currentColor" fill="none" stroke-linecap="round" stroke-linejoin="round"><path stroke="none" d="M0 0h24v24H0z" fill="none" /><rect x="4" y="4" width="16" height="16" rx="4" /><circle cx="12" cy="12" r="3" /><line x1="16.5" y1="7.5" x2="16.5" y2="7.501" /></symbol>
	<symbol id="Tiktok" xmlns="http://www.w3.org/2000/svg" viewBox="0 0 24 24" stroke="currentColor" fill="none" stroke-linecap="round" stroke-linejoin="round"><path stroke="none" d="M0 0h24v24H0z" fill="none" /><path d="M9 12a4 4 0 1 0 4 4v-12a5 5 0 0 0 5 5" /></symbol>
	<symbol id="Truck" xmlns="http://www.w3.org/2000/svg"  viewBox="0 0 36 28" stroke="currentColor" fill="none"><path d="M14 22.333C14 24.174 12.5077 25.6663 10.6667 25.6663C8.82576 25.6663 7.33337 24.174 7.33337 22.333M14 22.333C14 20.4921 12.5077 18.9997 10.6667 18.9997C8.82576 18.9997 7.33337 20.4921 7.33337 22.333M14 22.333H24M7.33337 22.333H4.00004V15.6663M30.6667 22.333C30.6667 24.174 29.1743 25.6663 27.3334 25.6663C25.4924 25.6663 24 24.174 24 22.333M30.6667 22.333C30.6667 20.4921 29.1743 18.9997 27.3334 18.9997C25.4924 18.9997 24 20.4921 24 22.333M30.6667 22.333H34V12.333M2.33337 2.33301H20.6667V22.333M34 12.333H20.6667M34 12.333L29 3.99967H20.6667M4.00004 8.99967H10.6667" stroke-linecap="round" stroke-linejoin="round"/></symbol>
	<symbol id="Return" xmlns="http://www.w3.org/2000/svg" viewBox="0 0 34 30" stroke="currentColor" fill="none"><path d="M32 6.66699H2M32 6.66699L27 11.667M32 6.66699L27 1.66699M7 28.3337L2 23.3337M2 23.3337L7 18.3337M2 23.3337H32" stroke-linecap="round" stroke-linejoin="round"/></symbol>			
	<symbol id="CreditCard" xmlns="http://www.w3.org/2000/svg" viewBox="0 0 34 28" stroke="currentColor" fill="none"><path d="M2 10.6663H32M8.66667 18.9997H8.68333M15.3333 18.9997H18.6667M7 2.33301H27C29.7614 2.33301 32 4.57158 32 7.33301V20.6663C32 23.4278 29.7614 25.6663 27 25.6663H7C4.23858 25.6663 2 23.4278 2 20.6663V7.33301C2 4.57158 4.23858 2.33301 7 2.33301Z" stroke-linecap="round" stroke-linejoin="round"/></symbol>		
	<symbol id="Deco" xmlns="http://www.w3.org/2000/svg" viewBox="0 0 58 20" stroke="currentColor" fill="none"><path d="M49.5359 16.9432C47.3666 16.9432 46.9948 14.8019 47.6797 12.7178C48.2221 11.0615 49.5066 9.31991 51.4201 9.31991C53.676 9.31991 53.9039 11.6038 53.247 13.6026C52.6753 15.3162 51.3908 16.9432 49.5359 16.9432ZM48.879 19.9973C52.6473 19.9973 56.0159 17.9133 57.3578 14.1449C58.7569 10.1767 57.1859 6.2085 52.0477 6.2085C47.9369 6.2085 44.7962 8.77758 43.5969 12.1755C42.2551 16.0011 43.7115 19.9973 48.879 19.9973ZM36.3747 19.9973C37.8591 19.9973 39.3729 19.6829 40.4282 19.2271C40.8 18.1998 40.828 17.2004 40.5428 16.201C39.8006 16.4862 38.7732 16.7727 37.7165 16.7727C34.861 16.7727 34.6051 14.6606 35.2048 12.8617C35.8617 10.9496 37.574 9.40786 40.287 9.40786C41.0012 9.40786 41.6861 9.52246 42.1138 9.77963C42.856 8.78025 43.2838 7.78086 43.3704 6.7535C42.7428 6.46834 41.6861 6.21117 40.3163 6.21117C35.863 6.21117 32.3505 8.80956 31.0953 12.406C29.896 15.8039 30.8101 20 36.3774 20L36.3747 19.9973ZM21.0442 11.8037C21.8143 10.0901 23.0136 9.09206 24.5846 9.09206C25.9838 9.09206 26.2116 9.86225 25.9838 10.4619C25.6413 11.2894 24.47 11.8037 21.0442 11.8037ZM22.2714 19.9973C23.7278 19.9973 25.7826 19.7122 27.4962 18.8554C27.7813 17.9133 27.7534 16.9712 27.4389 15.9998C26.3542 16.5421 24.8405 16.8566 23.4707 16.8566C21.4439 16.8566 20.3299 16.1997 20.3592 14.5447C25.8972 14.6873 28.7807 13.6879 29.7228 11.2334C30.6649 8.7496 29.0379 6.2085 25.1829 6.2085C21.0721 6.2085 18.046 9.14935 16.932 12.3181C15.7621 15.6867 16.5043 19.9973 22.2701 19.9973H22.2714ZM5.72293 19.9973C9.52059 19.9973 11.6806 18.2557 14.1924 12.9177C15.5622 9.97684 16.7335 7.09329 18.0753 4.23905L19.6743 4.7534C20.1021 4.89598 20.3313 4.6388 20.1314 4.23905L18.1899 0.270827C18.0473 -0.0143302 17.7329 -0.0436454 17.533 0.0429678L12.708 1.86984C12.3082 2.01242 12.3362 2.38419 12.7359 2.49745L14.1631 2.95451C12.9931 5.6102 11.5367 9.60641 10.3654 12.1182C9.05155 14.9165 8.39595 16.8859 6.16933 16.8859C3.9427 16.8859 3.57093 15.1443 4.51301 12.6605C5.59768 9.77697 7.42455 8.92016 9.5086 9.51979C10.0802 8.72028 10.508 7.52103 10.6785 6.43636C10.0789 6.26447 9.36469 6.2085 8.76639 6.2085C5.3978 6.2085 2.05719 7.95009 0.687373 11.6038C-1.0822 16.3143 0.554122 19.9973 5.7216 19.9973H5.72293Z" fill="currentColor"/></symbol>
	<symbol id="Discord" xmlns="http://www.w3.org/2000/svg" viewBox="0 0 127.14 96.36" stroke="currentColor" fill="none"><g id="图层_2" data-name="图层 2"><g id="Discord_Logos" data-name="Discord Logos"><g id="Discord_Logo_-_Large_-_White" data-name="Discord Logo - Large - White"><path class="cls-1" d="M107.7,8.07A105.15,105.15,0,0,0,81.47,0a72.06,72.06,0,0,0-3.36,6.83A97.68,97.68,0,0,0,49,6.83,72.37,72.37,0,0,0,45.64,0,105.89,105.89,0,0,0,19.39,8.09C2.79,32.65-1.71,56.6.54,80.21h0A105.73,105.73,0,0,0,32.71,96.36,77.7,77.7,0,0,0,39.6,85.25a68.42,68.42,0,0,1-10.85-5.18c.91-.66,1.8-1.34,2.66-2a75.57,75.57,0,0,0,64.32,0c.87.71,1.76,1.39,2.66,2a68.68,68.68,0,0,1-10.87,5.19,77,77,0,0,0,6.89,11.1A105.25,105.25,0,0,0,126.6,80.22h0C129.24,52.84,122.09,29.11,107.7,8.07ZM42.45,65.69C36.18,65.69,31,60,31,53s5-12.74,11.43-12.74S54,46,53.89,53,48.84,65.69,42.45,65.69Zm42.24,0C78.41,65.69,73.25,60,73.25,53s5-12.74,11.44-12.74S96.23,46,96.12,53,91.08,65.69,84.69,65.69Z"/></g></g></g></symbol>
	<symbol id="FilterList" xmlns="http://www.w3.org/2000/svg" viewBox="0 0 16 16" fill="none"><path d="M6.66667 12H9.33333V10.6667H6.66667V12ZM2 4V5.33333H14V4H2ZM4 8.66667H12V7.33333H4V8.66667Z" fill="currentColor"/></symbol>
	<symbol id="ChevronUp" xmlns="http://www.w3.org/2000/svg" viewBox="0 0 16 16" stroke="currentColor" fill="none"><path fill-rule="evenodd" clip-rule="evenodd" d="M7.52851 5.52827C7.78886 5.26792 8.21097 5.26792 8.47132 5.52827L12.4713 9.52827C12.7317 9.78862 12.7317 10.2107 12.4713 10.4711C12.211 10.7314 11.7889 10.7314 11.5285 10.4711L7.99992 6.94248L4.47132 10.4711C4.21097 10.7314 3.78886 10.7314 3.52851 10.4711C3.26816 10.2107 3.26816 9.78862 3.52851 9.52827L7.52851 5.52827Z" fill="black"/></symbol>
	<symbol id="Trash" viewBox="0 0 20 20" fill="none" xmlns="http://www.w3.org/2000/svg"><path fill-rule="evenodd" clip-rule="evenodd" d="M7.15482 2.15483C7.46738 1.84227 7.89131 1.66667 8.33333 1.66667H11.6667C12.1087 1.66667 12.5326 1.84227 12.8452 2.15483C13.1577 2.46739 13.3333 2.89131 13.3333 3.33334V5H15.8236C15.8295 4.99994 15.8353 4.99994 15.8412 5H16.6667C17.1269 5 17.5 5.3731 17.5 5.83334C17.5 6.29357 17.1269 6.66667 16.6667 6.66667H16.6001L15.833 15.8715C15.8231 16.5207 15.5609 17.1413 15.1011 17.6011C14.6323 18.0699 13.9964 18.3333 13.3333 18.3333H6.66667C6.00362 18.3333 5.36774 18.0699 4.8989 17.6011C4.43906 17.1413 4.17685 16.5207 4.16696 15.8715L3.39989 6.66667H3.33333C2.8731 6.66667 2.5 6.29357 2.5 5.83334C2.5 5.3731 2.8731 5 3.33333 5H4.15878C4.16467 4.99994 4.17055 4.99994 4.17641 5H6.66667V3.33334C6.66667 2.89131 6.84226 2.46739 7.15482 2.15483ZM5.07233 6.66667L5.83045 15.7641C5.83237 15.7871 5.83333 15.8102 5.83333 15.8333C5.83333 16.0543 5.92113 16.2663 6.07741 16.4226C6.23369 16.5789 6.44565 16.6667 6.66667 16.6667H13.3333C13.5543 16.6667 13.7663 16.5789 13.9226 16.4226C14.0789 16.2663 14.1667 16.0543 14.1667 15.8333C14.1667 15.8102 14.1676 15.7871 14.1695 15.7641L14.9277 6.66667H5.07233ZM11.6667 5H8.33333V3.33334H11.6667V5ZM8.33333 8.33334C8.79357 8.33334 9.16667 8.70643 9.16667 9.16667V14.1667C9.16667 14.6269 8.79357 15 8.33333 15C7.8731 15 7.5 14.6269 7.5 14.1667V9.16667C7.5 8.70643 7.8731 8.33334 8.33333 8.33334ZM11.6667 8.33334C12.1269 8.33334 12.5 8.70643 12.5 9.16667V14.1667C12.5 14.6269 12.1269 15 11.6667 15C11.2064 15 10.8333 14.6269 10.8333 14.1667V9.16667C10.8333 8.70643 11.2064 8.33334 11.6667 8.33334Z" fill="currentColor"/></symbol>
	<symbol id="WhatsApp"  xmlns="http://www.w3.org/2000/svg" viewBox="0 0 18 18" fill="none" ><path fill-rule="evenodd" clip-rule="evenodd" d="M13.333 3.94275C12.0977 2.88909 10.5203 2.32246 8.89688 2.34921C7.27345 2.37596 5.71558 2.99425 4.51564 4.08804C3.3157 5.18184 2.55617 6.67594 2.3796 8.28996C2.20302 9.90398 2.62153 11.527 3.5566 12.8543C3.72398 13.0919 3.75547 13.3996 3.63972 13.6661L2.88341 15.408L5.56246 14.9305C5.73665 14.8995 5.9162 14.9247 6.07512 15.0025C7.53336 15.7165 9.20204 15.8737 10.768 15.4448C12.334 15.0158 13.6896 14.0301 14.5804 12.6727C15.4712 11.3152 15.836 9.67933 15.6064 8.07201C15.3767 6.46468 14.5684 4.99641 13.333 3.94275ZM8.86942 0.682773C10.8987 0.649334 12.8704 1.35761 14.4146 2.67469C15.9588 3.99177 16.9692 5.8271 17.2563 7.83626C17.5433 9.84542 17.0873 11.8903 15.9738 13.5871C14.8603 15.2839 13.1658 16.516 11.2083 17.0522C9.34061 17.5638 7.35601 17.4083 5.59455 16.6177L1.64654 17.3213C1.34428 17.3752 1.03687 17.2585 0.846507 17.0176C0.656144 16.7767 0.613663 16.4506 0.735949 16.169L1.93091 13.417C0.947723 11.8367 0.519412 9.96793 0.722814 8.1087C0.943534 6.09118 1.89294 4.22355 3.39287 2.85631C4.8928 1.48907 6.84013 0.716212 8.86942 0.682773ZM6.03312 5.61685C6.26754 5.38243 6.58548 5.25073 6.917 5.25073C7.24852 5.25073 7.56646 5.38243 7.80088 5.61685C8.03531 5.85127 8.167 6.16921 8.167 6.50073V7.33407C8.167 7.66558 8.03531 7.98353 7.80088 8.21795C7.71659 8.30224 7.62149 8.37326 7.51885 8.42964C7.68255 8.89999 7.95113 9.33224 8.30998 9.69109C8.66883 10.0499 9.10107 10.3185 9.57143 10.4822C9.62781 10.3796 9.69882 10.2845 9.78312 10.2002C10.0175 9.96576 10.3355 9.83407 10.667 9.83407H11.5003C11.8319 9.83407 12.1498 9.96576 12.3842 10.2002C12.6186 10.4346 12.7503 10.7525 12.7503 11.0841C12.7503 11.4156 12.6186 11.7335 12.3842 11.9679C12.1498 12.2024 11.8319 12.3341 11.5003 12.3341H10.667C9.34092 12.3341 8.06915 11.8073 7.13147 10.8696C6.19378 9.93192 5.667 8.66015 5.667 7.33407V6.50073C5.667 6.16921 5.79869 5.85127 6.03312 5.61685Z" fill="currentColor"/></symbol>
	<symbol id="ArrowsPointingOut" xmlns="http://www.w3.org/2000/svg" fill="none" viewBox="0 0 24 24"><path stroke-linecap="round" stroke-linejoin="round" d="M3.75 3.75v4.5m0-4.5h4.5m-4.5 0L9 9M3.75 20.25v-4.5m0 4.5h4.5m-4.5 0L9 15M20.25 3.75h-4.5m4.5 0v4.5m0-4.5L15 9m5.25 11.25h-4.5m4.5 0v-4.5m0 4.5L15 15" /></symbol>
	<symbol id="Food" xmlns="http://www.w3.org/2000/svg" fill="currentColor" viewBox="0 0 24 24"><path d='M21.525 16.266l.308-1.233a.328.328 0 00-.372-.403l-1.534.255a3.248 3.248 0 00-.956-1.283c.376-.874.575-1.875.575-2.915 0-1.702-.526-3.26-1.48-4.388-1.022-1.208-2.44-1.846-4.098-1.846H9.374a6.241 6.241 0 00-6.234 6.234c0 .954.218 1.894.637 2.75a3.28 3.28 0 001.66 6.11h11.812c1.185 0 2.208-.78 2.678-1.9l1.534.255a.328.328 0 00.372-.403l-.308-1.233zm-3.96-9.543c.854 1.009 1.325 2.417 1.325 3.965 0 .913-.166 1.79-.482 2.56a2.717 2.717 0 00-.542-.191 7.522 7.522 0 00.367-2.37c0-1.702-.525-3.26-1.48-4.388a5.279 5.279 0 00-.864-.818c.649.276 1.224.701 1.677 1.242zm-2.625 0c.854 1.009 1.325 2.417 1.325 3.965a6.815 6.815 0 01-.38 2.296h-.713a6.24 6.24 0 00-2.839-7.783 4.452 4.452 0 012.607 1.522zm.501-.424a5.279 5.279 0 00-.865-.818c.65.276 1.224.701 1.677 1.242.854 1.009 1.324 2.417 1.324 3.965a6.815 6.815 0 01-.38 2.296h-.62a7.548 7.548 0 00.344-2.296c0-1.703-.526-3.262-1.48-4.389zM3.796 10.687A5.584 5.584 0 019.374 5.11a5.584 5.584 0 015.085 7.875H5.436c-.361 0-.72.06-1.062.178a5.584 5.584 0 01-.578-2.475zm-.985 5.579a2.625 2.625 0 115.25 0 2.625 2.625 0 01-5.25 0zM17.25 18.89H7.403a3.278 3.278 0 000-5.25h1.315c.735 0 1.969.34 1.969 2.625a.328.328 0 00.656 0c0-1.166-.317-2.066-.89-2.625h1.546c.735 0 1.969.34 1.969 2.625a.328.328 0 00.656 0c0-1.166-.317-2.066-.89-2.625h1.218c.735 0 1.969.34 1.969 2.625a.328.328 0 10.656 0c0-1.166-.316-2.066-.89-2.625h.562c1.267 0 2.297 1.177 2.297 2.625 0 1.447-1.03 2.625-2.297 2.625zm3.62-2.546l.206.827-.951-.158a3.612 3.612 0 000-1.496l.95-.159-.206.827a.327.327 0 000 .16z' fill='currentColor'/><path d='M4.781 15.938a.984.984 0 100 1.968.984.984 0 000-1.968zm0 1.312a.328.328 0 110-.656.328.328 0 010 .656zM9.635 11.576a.328.328 0 00.464 0l1.313-1.313a.328.328 0 10-.464-.464l-1.313 1.313a.329.329 0 000 .464zM6.75 11.672a.326.326 0 00.232-.096l3.61-3.61a.328.328 0 00-.465-.464l-3.609 3.61a.328.328 0 00.232.56zM6.422 15.61a.328.328 0 100-.657.328.328 0 000 .656z' fill='currentColor'/></symbol>
	<symbol id="Fruit" xmlns="http://www.w3.org/2000/svg" fill="currentColor" viewBox="0 0 24 24"><path d='M21.515 14.625h-1.64v-1.969a5.565 5.565 0 00-1.78-4.08c.443-1.186 1.65-2.221 1.663-2.232a.329.329 0 00-.212-.578c-.948 0-1.773.186-2.465.554.13-.219.276-.429.433-.629.28-.356.592-.687.931-.987a.328.328 0 00-.211-.579c-.887 0-1.67.165-2.336.49-.092-.686-.403-1.898-1.455-2.424a.328.328 0 00-.293 0c-1.051.525-1.363 1.736-1.455 2.422-.664-.324-1.446-.488-2.336-.488a.328.328 0 00-.212.578c.339.301.65.632.931.988.158.2.302.41.432.627-.69-.367-1.514-.552-2.464-.552a.328.328 0 00-.212.578c.013.01 1.22 1.046 1.664 2.231a5.563 5.563 0 00-1.78 4.081v.038c-.362.069-.841.225-1.097.418a.975.975 0 01-.114.073c.086-.79.24-1.596.5-1.987a.328.328 0 10-.546-.364c-.298.446-.507 1.264-.622 2.43a.931.931 0 01-.305-.152c-.346-.26-1.101-.456-1.422-.456-.857 0-1.632.35-2.18.985-.623.724-.89 1.753-.73 2.823l.204 1.377c.128.874.413 1.717.842 2.488.536.96 1.465 1.516 2.448 1.516a2.652 2.652 0 00.738-.106l.55-.197a.278.278 0 01.188 0l.55.197a2.653 2.653 0 00.738.106c.718 0 1.408-.298 1.937-.833a8.197 8.197 0 003.571.832c2.043 0 4.016-.774 5.558-2.178 1.472-1.342 2.317-3.06 2.317-4.713a.328.328 0 00-.328-.328zm-8.604-1.645l1.39-1.35 1.392 1.353-1.389 1.347-1.393-1.35zm.755 1.645H11.79a3.272 3.272 0 00-.17-.391l.82-.796 1.226 1.187zm2.498-1.185l1.22 1.185h-2.442l1.222-1.185zm-1.393-2.267l1.389-1.348 1.393 1.354-1.389 1.347-1.393-1.353zm.23-3.388a4.886 4.886 0 011.714.586l-.555.54L15 7.784zm.688 1.583L14.3 10.716 12.913 9.37 14.3 8.02l1.388 1.348zm-3.247-.456l-.56-.544c.532-.3 1.116-.499 1.721-.584l-1.161 1.128zm0 .914l1.387 1.348-1.39 1.35-1.39-1.346 1.393-1.352zm-.474 3.155l-.716.696-.03-.036a2.806 2.806 0 00-1.729-.951l1.086-1.055 1.39 1.346zm-.22 4.86l.206-1.377c.06-.392.06-.79.001-1.183h7.861c-.19 1.084-.83 2.17-1.796 3.025-1.142 1.012-2.581 1.569-4.052 1.569a6.014 6.014 0 01-2.582-.594c.169-.467.29-.949.363-1.44zm6.915-3.216l.555-.538v.538h-.555zm.555-1.451l-1.195 1.156-1.388-1.347 1.39-1.347 1.193 1.159v.379zm-.073-1.365l-.65-.63.368-.357c.129.318.223.65.282.987zm-.584-1.608l-.536.52-1.394-1.353.645-.627c.52.398.957.894 1.285 1.46zm.122-3.716c-.377.415-.831 1-1.119 1.654a5.585 5.585 0 00-.935-.55c.004-.05.01-.101.018-.153.529-.506 1.211-.824 2.036-.951zM17.37 4.844c-.532.587-1.22 1.512-1.372 2.5a5.536 5.536 0 00-1.189-.242 4.528 4.528 0 00-.15-.4c.403-.772 1.188-1.623 2.711-1.858zm-3.074-1.982c.813.53.955 1.745.98 2.129a3.988 3.988 0 00-.98 1.035 4.06 4.06 0 00-.979-1.036c.025-.385.167-1.599.98-2.128zm-3.073 1.983c1.817.282 2.575 1.442 2.883 2.237a5.55 5.55 0 00-1.511.262 2.821 2.821 0 00-.038-.199l.011-.01-.018-.02c-.213-.9-.836-1.728-1.327-2.27zm-1.314 1.64c.826.126 1.508.446 2.036.952.008.051.015.102.019.153a5.585 5.585 0 00-.936.549c-.287-.655-.742-1.239-1.119-1.654zm1.412 2.253l.65.631-1.393 1.352-.543-.526a4.96 4.96 0 011.286-1.457zm-1.589 2.077l.375.363-.661.643a4.88 4.88 0 01.286-1.006zm.602 9.194c-.416.746-1.13 1.178-1.881 1.178-.177 0-.352-.023-.522-.07l-.538-.192a.938.938 0 00-.63 0l-.539.192c-.927.254-1.891-.19-2.403-1.108a6.63 6.63 0 01-.765-2.264l-.206-1.377c-.13-.881.08-1.719.58-2.298a2.184 2.184 0 011.682-.758c.209 0 .818.167 1.028.325.19.143.412.242.646.287-.016.261-.025.49-.03.667a.979.979 0 01-.435-.202l.004.004a.329.329 0 10-.464.464c.044.044.447.424 1.217.424s1.173-.38 1.216-.424a.328.328 0 10-.464-.464.99.99 0 01-.418.194c.005-.198.016-.43.032-.68.207-.05.401-.142.571-.27.21-.158.82-.325 1.028-.325a2.184 2.184 0 011.682.758c.5.579.71 1.416.58 2.297l-.205 1.377a6.63 6.63 0 01-.766 2.265zm8.75-.828c-1.42 1.294-3.237 2.006-5.116 2.006a7.532 7.532 0 01-3.153-.703 7.075 7.075 0 00.319-.596c.886.42 1.854.64 2.834.643 1.631 0 3.224-.615 4.487-1.734 1.11-.982 1.835-2.249 2.026-3.516h.693c-.104 1.368-.853 2.773-2.09 3.9z' fill='currentColor'/><path d='M18.234 16.594a.328.328 0 100-.657.328.328 0 000 .657zM16.594 18.234a.328.328 0 100-.656.328.328 0 000 .656zM14.953 17.25a.328.328 0 100-.656.328.328 0 000 .656zM12.984 17.25a.328.328 0 100-.656.328.328 0 000 .656zM13.969 19.219a.328.328 0 100-.657.328.328 0 000 .657z' fill='currentColor'/></symbol>
	<symbol id="Adega" xmlns="http://www.w3.org/2000/svg" fill="currentColor" viewBox="0 0 2000.000000 2004.000000"><g transform="translate(0.000000,2004.000000) scale(0.100000,-0.100000)" fill="currentColor" stroke="none"><path d="M2280 20011 c0 -5 -17 -15 -37 -22 -69 -22 -138 -79 -189 -154 -69 -104 -64 69 -64 -2405 l0 -2236 -27 -26 c-16 -14 -64 -46 -108 -72 -257 -150 -336 -206 -616 -442 -108 -91 -414 -416 -465 -494 -12 -19 -50 -73 -83 -120 -125 -176 -171 -250 -261 -425 -51 -99 -95 -184 -99 -190 -9 -12 -57 -139 -116 -305 -7 -19 -22 -60 -33 -90 -32 -86 -59 -185 -82 -305 -12 -60 -30 -148 -41 -195 -10 -47 -24 -143 -29 -215 -6 -71 -15 -131 -20 -133 -12 -4 -14 -11869 -2 -11874 4 -1 21 -30 37 -63 37 -76 104 -143 180 -180 33 -16 62 -33 63 -37 5 -11 6139 -10 6144 1 2 4 23 18 48 30 25 12 61 31 81 43 l35 21 80 -27 c43 -15 108 -34 144 -43 36 -9 67 -20 68 -24 2 -5 1153 -9 2559 -9 2210 0 2556 2 2569 14 8 8 36 18 62 22 58 8 219 71 290 113 29 17 61 31 70 31 10 0 34 -13 54 -30 49 -41 184 -106 236 -115 24 -4 46 -13 49 -21 8 -21 6608 -21 6616 0 3 8 23 18 44 21 21 4 81 28 133 53 82 41 109 61 195 147 86 86 106 113 147 195 25 52 49 112 53 133 3 21 13 41 21 44 12 4 14 692 14 5298 0 3499 -3 5294 -10 5297 -5 2 -14 75 -20 163 -6 88 -19 208 -30 268 -11 59 -29 158 -40 220 -37 199 -62 321 -75 357 -7 19 -25 76 -40 125 -14 50 -32 108 -40 130 -7 22 -23 74 -35 115 -25 87 -53 162 -87 240 -14 30 -28 64 -33 75 -4 11 -18 41 -29 68 -20 44 -29 65 -80 180 -10 23 -30 68 -45 100 -14 32 -78 146 -142 255 -174 295 -204 343 -239 387 -27 34 -165 216 -293 385 -37 48 -128 145 -336 359 -130 133 -169 167 -466 409 -85 69 -186 153 -223 186 -72 64 -171 201 -194 269 -8 22 -19 49 -25 60 -5 11 -17 54 -26 96 -14 67 -17 300 -22 2061 -4 1554 -8 1993 -18 2022 -16 46 -77 136 -111 163 -51 40 -89 63 -125 75 -20 6 -36 16 -36 21 0 5 -435 9 -1100 9 -611 0 -1100 -4 -1100 -9 0 -4 -19 -16 -42 -25 -65 -25 -129 -77 -171 -139 -77 -112 -71 71 -77 -2162 l-5 -2000 -23 -65 c-12 -36 -29 -79 -37 -97 -8 -17 -15 -34 -15 -38 0 -4 -24 -44 -53 -89 -65 -98 -141 -168 -458 -424 -129 -105 -264 -221 -298 -259 -35 -37 -131 -138 -215 -223 -111 -113 -197 -214 -317 -372 -180 -239 -246 -337 -376 -563 -47 -82 -91 -157 -98 -165 -16 -21 -49 -83 -80 -155 -14 -33 -32 -73 -40 -90 -16 -37 -49 -110 -74 -167 -10 -24 -37 -86 -59 -138 -23 -52 -60 -153 -82 -225 -22 -71 -45 -143 -51 -160 -6 -16 -17 -52 -25 -80 -14 -53 -38 -130 -55 -180 -10 -28 -35 -154 -59 -300 -6 -33 -17 -91 -25 -130 -36 -178 -47 -264 -56 -460 -5 -115 -14 -257 -19 -314 -6 -58 -10 -190 -10 -293 0 -170 -2 -189 -16 -186 -20 4 -22 6 -80 143 -26 61 -60 139 -76 175 -17 36 -39 84 -49 108 -11 23 -27 61 -38 85 -10 23 -31 69 -46 102 -53 118 -65 146 -86 193 -33 76 -37 84 -63 155 -15 37 -37 97 -52 135 -14 37 -29 76 -34 87 -5 11 -16 38 -23 60 -8 22 -26 72 -39 110 -14 39 -38 111 -53 160 -15 50 -33 106 -41 125 -7 19 -25 76 -39 125 -15 50 -31 102 -37 116 -5 15 -15 53 -22 85 -8 33 -34 140 -60 239 -26 99 -54 216 -62 260 -9 44 -24 121 -34 170 -50 254 -66 347 -80 465 -6 52 -15 113 -20 135 -4 22 -11 72 -15 110 -3 39 -13 131 -20 205 -37 348 -38 439 -45 2870 -4 1525 -10 2420 -17 2445 -5 22 -14 49 -20 60 -6 11 -13 34 -16 50 -8 42 -80 167 -139 242 -89 112 -246 216 -390 257 -32 9 -58 21 -58 26 0 7 -342 10 -950 10 -608 0 -950 -3 -950 -10 0 -5 -26 -17 -57 -26 -91 -26 -217 -93 -283 -151 -137 -119 -215 -237 -269 -408 l-26 -80 -5 -2465 c-5 -1726 -10 -2484 -17 -2530 -6 -36 -17 -146 -23 -245 -6 -99 -14 -183 -16 -186 -2 -4 -11 -60 -18 -126 -8 -65 -22 -170 -31 -233 -15 -108 -22 -150 -61 -340 -8 -41 -21 -109 -29 -150 -22 -116 -51 -245 -80 -355 -15 -55 -33 -125 -40 -155 -35 -143 -48 -191 -74 -270 -16 -47 -41 -125 -55 -175 -15 -49 -34 -106 -41 -125 -8 -19 -19 -51 -24 -70 -12 -45 -33 -103 -75 -210 -18 -47 -52 -134 -76 -195 -39 -103 -364 -848 -379 -870 -6 -9 -42 -98 -55 -138 -3 -10 -12 -17 -19 -15 -9 4 -13 175 -18 789 -6 833 -15 1039 -60 1249 -72 346 -74 355 -93 415 -8 28 -27 82 -41 120 -44 119 -66 178 -81 227 -14 44 -113 245 -227 461 -26 48 -73 123 -104 167 -32 43 -92 128 -133 187 -95 138 -391 458 -522 566 -254 209 -305 249 -338 268 -19 11 -78 46 -130 79 -52 32 -122 75 -155 94 -33 20 -69 43 -80 51 -20 16 -20 31 -25 2278 -5 2162 -6 2264 -23 2312 -37 99 -140 205 -230 234 -20 7 -37 17 -37 22 0 5 -427 9 -1080 9 -653 0 -1080 -4 -1080 -9z m1658 -783 c9 -9 12 -300 12 -1247 0 -680 -4 -1242 -8 -1249 -7 -10 -126 -13 -582 -13 -456 0 -575 3 -582 13 -4 7 -8 572 -8 1255 0 984 3 1242 13 1246 6 3 266 6 577 6 428 1 569 -2 578 -11z m6290 -1 c18 -21 18 -1067 0 -1078 -7 -5 -365 -9 -794 -9 -654 0 -783 2 -793 14 -8 10 -11 155 -9 540 3 455 5 528 18 536 9 6 320 10 791 10 629 0 779 -2 787 -13z m6450 1 c17 -17 17 -669 0 -686 -17 -17 -1179 -17 -1196 0 -17 17 -17 669 0 686 17 17 1179 17 1196 0z m0 -1490 c9 -9 12 -203 12 -810 0 -778 0 -798 -19 -808 -13 -6 -216 -10 -591 -10 -375 0 -578 4 -591 10 -19 10 -19 30 -19 808 0 607 3 801 12 810 17 17 1179 17 1196 0z m-6438 -1678 c3 -712 9 -1302 12 -1310 4 -8 12 -154 18 -325 6 -170 15 -332 20 -359 6 -27 14 -99 20 -160 6 -61 17 -156 24 -211 25 -177 29 -270 13 -283 -11 -9 -231 -11 -918 -10 l-904 3 -3 44 c-2 24 4 89 12 145 8 55 18 135 21 176 4 41 13 118 21 170 40 268 47 542 51 1985 2 765 5 1400 8 1413 l5 22 798 -2 797 -3 5 -1295z m-6298 -142 c4 -7 8 -241 8 -519 0 -487 1 -510 21 -575 32 -103 84 -171 175 -227 35 -22 144 -79 354 -188 50 -26 87 -51 270 -183 137 -98 408 -357 495 -471 28 -36 82 -107 121 -158 66 -86 146 -219 241 -397 43 -82 92 -201 172 -422 10 -29 29 -98 41 -153 12 -55 31 -136 41 -180 45 -190 52 -341 56 -1201 4 -684 2 -812 -10 -822 -10 -9 -379 -12 -1443 -14 -1611 -3 -1483 3 -1587 -82 -137 -111 -185 -255 -141 -415 30 -105 141 -222 246 -258 50 -17 138 -18 1482 -21 1028 -2 1433 -5 1443 -13 11 -10 13 -490 13 -2831 0 -1924 -3 -2825 -10 -2839 -11 -19 -50 -19 -2569 -19 -2153 0 -2560 2 -2570 14 -8 10 -10 1054 -8 4072 3 3781 4 4069 20 4209 10 83 27 187 37 233 11 45 29 119 40 165 11 45 20 89 20 97 0 7 18 60 40 117 23 56 60 151 83 210 60 155 221 432 350 603 167 221 378 429 600 592 98 71 201 142 230 158 29 15 104 54 167 87 242 125 296 165 343 250 55 103 57 123 57 669 0 403 3 505 13 516 19 19 1146 15 1159 -4z m12835 -600 c5 -7 19 -40 32 -73 37 -94 62 -143 125 -245 99 -161 224 -296 417 -452 345 -277 435 -357 609 -540 102 -106 224 -245 271 -308 48 -63 116 -154 153 -201 62 -81 94 -132 265 -424 68 -117 283 -583 301 -655 18 -71 48 -168 58 -186 5 -11 12 -36 16 -58 4 -21 13 -52 21 -70 22 -53 52 -175 75 -306 12 -69 31 -168 41 -220 10 -52 26 -183 36 -290 16 -182 18 -525 20 -5329 3 -3815 0 -5137 -8 -5147 -10 -12 -504 -14 -3121 -14 -2124 0 -3115 3 -3129 10 -19 11 -19 78 -19 5038 0 3014 4 5065 10 5122 5 52 12 169 15 260 4 91 15 212 25 270 11 58 29 159 40 225 27 152 57 288 75 340 15 46 41 129 80 260 15 50 33 106 40 125 32 87 222 510 246 550 15 25 71 119 123 210 108 185 117 198 306 447 92 122 189 233 305 352 220 225 218 223 440 402 296 239 364 300 453 406 86 103 195 271 218 337 8 22 18 44 23 50 4 6 11 22 14 36 4 14 16 40 27 58 l20 32 684 0 c535 0 686 -3 693 -12z m-6267 -2708 c11 -6 24 -29 30 -53 6 -23 19 -76 31 -117 11 -41 26 -100 34 -130 47 -182 90 -330 120 -410 7 -19 34 -100 59 -180 44 -137 60 -181 159 -440 59 -155 77 -200 98 -247 10 -24 27 -62 38 -85 10 -24 30 -68 44 -98 14 -30 62 -138 107 -240 45 -102 93 -210 107 -240 14 -30 33 -73 43 -95 10 -22 29 -65 42 -95 26 -56 63 -150 137 -345 64 -167 77 -204 100 -275 134 -416 135 -419 161 -520 12 -47 28 -105 35 -130 8 -25 17 -61 20 -80 4 -19 12 -55 20 -80 15 -51 45 -186 74 -335 11 -55 29 -145 40 -200 37 -182 92 -581 116 -835 32 -339 36 -740 33 -3535 l-3 -2781 -27 -52 c-41 -79 -71 -114 -130 -149 -112 -68 79 -63 -2584 -61 l-2409 3 -58 24 c-81 32 -166 117 -198 196 l-24 60 0 2975 c0 2341 3 2996 13 3075 7 55 17 168 22 250 10 143 23 254 55 465 8 52 17 120 20 150 4 30 12 87 20 125 8 39 22 106 31 150 9 44 20 105 25 135 5 30 16 82 23 115 8 33 19 80 24 105 5 25 31 126 57 225 26 99 50 196 54 215 4 19 14 55 23 80 8 25 26 79 38 120 13 41 28 91 36 110 7 19 24 76 39 125 15 50 42 128 60 175 30 80 90 237 137 360 24 63 41 103 75 180 14 30 31 69 38 85 25 57 80 181 114 258 11 23 30 67 44 97 14 30 38 84 55 120 45 100 156 358 179 420 12 30 33 87 48 125 14 39 30 79 35 90 5 11 16 38 23 60 8 22 26 72 40 110 13 39 46 138 72 220 25 83 51 161 57 175 11 26 19 54 62 215 53 196 68 251 82 308 8 32 21 71 29 87 l16 30 1060 0 c700 0 1067 -3 1079 -10z m-4582 -9472 c17 -17 17 -2309 0 -2326 -17 -17 -5119 -17 -5136 0 -9 9 -12 280 -12 1159 0 631 3 1154 6 1163 6 15 241 16 2568 16 1979 0 2565 -3 2574 -12z"/> <path d="M1600 10391 c-146 -40 -254 -156 -279 -298 -36 -207 81 -391 283 -445 87 -23 105 -23 186 1 153 43 261 159 282 302 31 210 -79 382 -282 440 -79 23 -106 23 -190 0z"/> <path d="M3290 8247 c-3 -3 -59 -10 -125 -16 -66 -7 -136 -18 -155 -25 -19 -8 -75 -26 -125 -41 -49 -15 -128 -48 -175 -73 -47 -25 -101 -54 -120 -63 -39 -19 -191 -139 -258 -203 -149 -142 -306 -397 -363 -586 -12 -41 -28 -93 -36 -114 -15 -42 -37 -241 -37 -341 -1 -96 23 -311 38 -352 8 -21 24 -72 36 -113 42 -145 142 -324 257 -464 99 -118 282 -281 369 -327 27 -14 83 -44 125 -66 42 -22 118 -52 170 -67 52 -16 108 -34 126 -42 32 -13 257 -39 343 -38 93 0 295 24 344 40 28 9 76 25 107 35 31 11 62 19 70 19 20 0 215 101 294 152 22 14 74 55 115 92 41 36 78 66 81 66 10 0 192 220 216 260 19 32 45 78 108 196 12 22 34 81 49 130 15 49 34 107 41 129 15 42 40 264 39 350 0 87 -24 298 -38 340 -8 22 -27 81 -42 130 -15 50 -45 124 -68 165 -22 41 -51 97 -65 124 -50 95 -210 275 -331 374 -63 51 -135 103 -160 116 -25 12 -79 41 -120 63 -41 22 -115 52 -165 67 -49 15 -106 34 -125 41 -49 20 -407 55 -420 42z m241 -801 c127 -31 279 -129 363 -235 122 -156 172 -344 142 -531 -27 -164 -77 -263 -196 -382 -75 -74 -101 -94 -183 -132 -134 -64 -255 -82 -394 -61 -91 14 -193 47 -225 72 -7 6 -24 14 -38 18 -14 4 -68 51 -120 104 -73 74 -104 113 -132 171 -49 99 -71 194 -71 310 0 163 48 301 149 431 89 112 249 213 379 237 33 7 69 14 80 16 33 8 186 -3 246 -18z"/> <path d="M14099 10001 c-139 -37 -249 -152 -280 -291 -21 -98 -21 -5532 0 -5630 32 -141 142 -254 284 -291 68 -18 152 -19 1979 -19 2143 0 1983 -6 2102 74 77 52 136 137 159 229 15 58 17 145 17 734 0 622 -1 673 -19 736 -40 145 -139 242 -286 280 l-85 22 -85 -22 c-152 -40 -244 -128 -285 -276 -19 -67 -20 -104 -20 -522 0 -338 -3 -454 -12 -463 -16 -16 -2939 -18 -2969 -2 -19 11 -19 47 -19 2335 0 2288 0 2324 19 2335 30 16 2953 14 2969 -2 9 -9 12 -104 12 -368 0 -326 2 -361 20 -428 72 -259 371 -367 590 -214 71 49 132 139 154 226 14 57 16 140 16 636 0 499 -2 579 -17 637 -23 92 -82 177 -159 229 -119 80 42 74 -2106 73 -1805 0 -1917 -1 -1979 -18z"/><path d="M17868 7265 c-131 -36 -232 -138 -269 -272 -23 -82 -23 -108 -3 -187 30 -122 142 -244 252 -276 216 -64 431 53 493 268 10 37 19 80 19 97 0 17 -9 60 -19 97 -59 208 -270 329 -473 273z"/><path d="M7785 6951 c-133 -38 -229 -140 -266 -283 -18 -69 -19 -147 -19 -2117 0 -1982 1 -2048 19 -2120 25 -96 79 -173 158 -227 116 -79 -3 -74 1765 -74 1538 0 1575 0 1645 20 152 42 259 158 282 307 15 101 15 4085 0 4186 -15 103 -75 197 -161 254 -117 78 5 73 -1774 72 -1472 0 -1593 -2 -1649 -18z m2803 -773 c17 -17 17 -3239 0 -3256 -17 -17 -2279 -17 -2296 0 -9 9 -12 386 -12 1633 0 892 3 1625 7 1628 3 4 520 7 1148 7 874 0 1144 -3 1153 -12z"/></g></symbol>
	<symbol id="Discount" xmlns="http://www.w3.org/2000/svg" fill="currentColor" viewBox="0 0 512 512"><g clip-path="url(#clip0_10_30)"><path d="M512 34.88C512.039 25.531 508.431 16.754 501.841 10.164C495.251 3.57398 486.457 -0.0280242 477.126 0.00597582C467.804 0.0449758 459.028 3.70798 452.415 10.32C449.615 13.12 444.522 19.168 441.736 22.525C438.81 26.05 439.294 31.28 442.819 34.205C446.343 37.131 451.573 36.647 454.499 33.122C458.863 27.866 462.47 23.727 464.145 22.051C467.643 18.554 472.277 16.616 477.195 16.595C477.222 16.595 477.247 16.595 477.274 16.595C482.136 16.595 486.693 18.475 490.111 21.894C493.548 25.331 495.431 29.918 495.41 34.81C495.389 39.727 493.451 44.361 489.954 47.86C486.823 50.991 476.061 59.528 460.642 70.299C451.521 54.705 434.605 44.2 415.272 44.2H293.808C277.412 44.2 261.998 50.585 250.403 62.178L7.613 304.971C2.704 309.88 0 316.407 0 323.349C0 330.291 2.704 336.819 7.613 341.727L170.28 504.394C175.348 509.461 182.002 511.994 188.658 511.994C195.314 511.994 201.97 509.46 207.036 504.394L449.828 261.603C461.421 250.009 467.806 234.595 467.806 218.198V96.735C467.806 93.15 467.443 89.65 466.755 86.265C484.306 74.188 497.19 64.085 501.684 59.591C508.298 52.979 511.961 44.203 512 34.88ZM451.217 218.198C451.217 230.163 446.557 241.412 438.098 249.871L195.306 492.664C191.642 496.329 185.676 496.329 182.011 492.664L19.344 329.997C17.569 328.222 16.59 325.861 16.59 323.349C16.59 320.837 17.568 318.477 19.344 316.702L262.135 73.911C270.596 65.451 281.844 60.792 293.808 60.792H415.271C428.911 60.792 440.801 68.429 446.889 79.651C437.091 86.139 426.12 93.038 414.481 99.822C414.118 99.424 413.747 99.03 413.362 98.645C399.778 85.061 377.676 85.061 364.092 98.645C350.508 112.229 350.508 134.331 364.092 147.915C370.884 154.707 379.806 158.102 388.727 158.102C397.648 158.102 406.57 154.707 413.362 147.915C422.429 138.848 425.434 125.989 422.398 114.398C432.521 108.505 442.242 102.482 451.213 96.655C451.214 96.683 451.216 96.709 451.216 96.736V218.198H451.217ZM381.319 127.007C382.776 129.904 385.7 131.576 388.736 131.576C389.989 131.576 391.262 131.291 392.458 130.689C397.32 128.243 402.165 125.699 406.962 123.093C407.01 127.828 405.24 132.578 401.634 136.184C394.518 143.299 382.942 143.299 375.826 136.184C368.711 129.068 368.711 117.492 375.826 110.376C379.384 106.818 384.057 105.04 388.73 105.04C392.43 105.04 396.119 106.174 399.266 108.403C394.571 110.955 389.806 113.454 385.003 115.871C380.908 117.928 379.259 122.915 381.319 127.007Z" fill="currentColor"/><path d="M247.162 168.962C242.581 168.962 238.867 172.675 238.867 177.257V352.436C238.867 357.017 242.581 360.731 247.162 360.731C251.743 360.731 255.457 357.017 255.457 352.436V177.257C255.457 172.675 251.743 168.962 247.162 168.962Z" fill="currentColor"/><path d="M209.231 240.213C195.648 226.627 173.545 226.628 159.963 240.212C146.379 253.796 146.379 275.898 159.963 289.482C166.756 296.275 175.676 299.67 184.598 299.669C193.518 299.669 202.441 296.272 209.232 289.482C215.813 282.901 219.437 274.153 219.437 264.847C219.437 255.541 215.812 246.792 209.231 240.213ZM197.501 277.75C190.385 284.866 178.809 284.865 171.694 277.75C164.579 270.634 164.579 259.058 171.694 251.942C175.252 248.384 179.925 246.606 184.598 246.606C189.271 246.606 193.944 248.384 197.502 251.942C200.949 255.389 202.847 259.971 202.847 264.846C202.846 269.721 200.948 274.303 197.501 277.75Z" fill="currentColor"/><path d="M334.36 240.212C320.776 226.627 298.673 226.628 285.092 240.212C271.508 253.796 271.508 275.898 285.092 289.482C291.884 296.274 300.805 299.669 309.727 299.669C318.648 299.669 327.57 296.274 334.361 289.482C347.944 275.898 347.944 253.796 334.36 240.212ZM322.629 277.75C315.513 284.866 303.937 284.865 296.822 277.75C289.707 270.634 289.707 259.058 296.822 251.942C300.38 248.384 305.053 246.606 309.726 246.606C314.399 246.606 319.072 248.384 322.63 251.942C329.745 259.058 329.745 270.634 322.629 277.75Z" fill="currentColor"/></g><defs><clipPath id="clip0_10_30"><rect width="512" height="512" fill="currentColor"/></clipPath></defs></symbol>
</svg>